<?xml version="1.0" encoding="utf-8"?>
<!-- Generator: Adobe Illustrator 26.3.1, SVG Export Plug-In . SVG Version: 6.00 Build 0)  -->
<svg version="1.1" id="Layer_1" xmlns="http://www.w3.org/2000/svg" xmlns:xlink="http://www.w3.org/1999/xlink" x="0px" y="0px"
	 width="57.8px" height="60.8px" viewBox="0 0 57.8 60.8" style="enable-background:new 0 0 57.8 60.8;" xml:space="preserve">
<style type="text/css">
	.st0{fill:#55575A;}
</style>
<g>
	<g>
		<g>
			<polygon class="st0" points="31,34.4 31,34.4 25.9,31.4 26,31.4 			"/>
		</g>
		<g>
			<polygon class="st0" points="12.9,14.6 5.7,14.6 5.7,12.6 10.9,12.6 10.9,7.4 12.9,7.4 			"/>
			<g>
				<g id="Group_80875_00000020361233083485562420000001089929893531411619_">
					<path class="st0" d="M56.6,56.7l-2.8-4.5c-0.2-0.3-0.5-0.5-0.8-0.5h-0.5c1.3-2.1,2.2-4.5,2.6-7c1.3-8.9-4.1-17.5-12.6-20.2v0
						c-0.1-0.7-0.4-1.3-0.8-1.9c-0.2-0.3-0.5-0.6-0.7-0.8l3.8-6.3c0.1-0.2,0.2-0.5,0.1-0.8c-0.1-0.3-0.2-0.5-0.5-0.6l-0.8-0.5
						l0.5-0.8l0.2,0.1c0.2,0.1,0.3,0.1,0.5,0.1c0.3,0,0.7-0.2,0.8-0.5l1.7-2.7c0.1-0.2,0.2-0.5,0.1-0.8c-0.1-0.3-0.2-0.5-0.5-0.6
						l-5.4-3.2c-0.5-0.3-1.1-0.1-1.4,0.3l-1.7,2.7c-0.1,0.2-0.2,0.5-0.1,0.8c0.1,0.3,0.2,0.5,0.5,0.6l0.1,0.1l-0.5,0.8l-0.7-0.4V2.9
						c0-0.5-0.5-1-1-1h-26c-0.3,0-0.5,0.1-0.7,0.3L1,11.3c-0.2,0.2-0.3,0.5-0.3,0.7v37.7c0,0.5,0.5,1,1,1h28.1v-2H2.7V12.4l8.5-8.5
						h24.6v7.4l-11.5,19l-0.7-0.4l-1,1.7l0.7,0.4l-0.9,1.5c-0.1,0.2-0.2,0.5-0.1,0.8c0.1,0.3,0.2,0.5,0.5,0.6l0.1,0.1v0
						c-0.7,1.7-0.1,3.7,1.6,4.7c0.6,0.3,1.2,0.5,1.9,0.5c1.1,0,2.2-0.5,3-1.4l0.2,0.1c0.2,0.1,0.3,0.1,0.5,0.1
						c0.3,0,0.6-0.2,0.8-0.5l1-1.5l0.9,0.5l1-1.7l-0.8-0.5L36,30c0.3,0.1,0.7,0.2,1,0.3c0.3,0.1,0.6,0.1,0.8,0.1
						c0.8,0,1.6-0.2,2.3-0.6c6.3,1.6,10.3,7.6,9.3,14.1c-0.4,3.1-2,5.9-4.6,7.9h-23c-0.4,0-0.7,0.2-0.9,0.5l-2.8,4.5
						c-0.2,0.3-0.2,0.7,0,1c0.2,0.3,0.5,0.5,0.9,0.5h36.7c0.4,0,0.7-0.2,0.9-0.5C56.8,57.4,56.8,57.1,56.6,56.7z M41.3,7.6L45,9.8
						l-0.6,1l-3.7-2.2L41.3,7.6z M40.6,10.9l1.7,1l-0.5,0.8l-1.7-1L40.6,10.9z M25.4,38c-0.7-0.4-1-1.2-0.8-2l2.9,1.7
						C26.9,38.3,26,38.4,25.4,38z M29.6,36.7l-5-3l0.4-0.6l5,3l0,0L29.6,36.7z M31,34.4L31,34.4l-5.1-3l0-0.1l11.4-18.9l5.1,3
						l-3.3,5.5c-0.2-0.1-0.4-0.1-0.6-0.1c-2.7-0.4-5.2,1.4-5.5,4c-0.2,1.3,0.1,2.5,0.9,3.6c0.1,0.2,0.3,0.3,0.4,0.5L31,34.4z
						 M40.6,26c-0.1,0.7-0.4,1.4-1,1.7c0,0,0,0-0.1,0c-0.4,0.3-1.2,0.7-2.2,0.5c-0.8-0.1-1.4-0.5-1.8-1.1c-0.4-0.6-0.6-1.3-0.5-2.1
						c0.2-1.4,1.4-2.4,2.8-2.4c0.1,0,0.3,0,0.4,0c0.8,0.1,1.4,0.5,1.8,1.1C40.5,24.4,40.7,25.2,40.6,26z M51.5,44.1
						c1-7.1-3.1-13.7-9.6-16c0.3-0.5,0.5-1,0.6-1.5c7.3,2.6,11.8,10.1,10.7,17.8c-0.4,2.7-1.5,5.2-3.1,7.4h-2.3
						C49.8,49.6,51.1,47,51.5,44.1z M20.9,56.3l1.6-2.5h30l1.6,2.5H20.9z"/>
				</g>
			</g>
			<rect x="6.1" y="26.4" class="st0" width="13" height="2"/>
			<rect x="6.1" y="33.2" class="st0" width="10.6" height="2"/>
			<rect x="6.1" y="40.1" class="st0" width="6.5" height="2"/>
		</g>
	</g>
</g>
</svg>
