<?xml version="1.0" encoding="utf-8"?>
<!-- Generator: Adobe Illustrator 26.2.1, SVG Export Plug-In . SVG Version: 6.00 Build 0)  -->
<svg version="1.1" id="Layer_1" xmlns="http://www.w3.org/2000/svg" xmlns:xlink="http://www.w3.org/1999/xlink" x="0px" y="0px"
	 viewBox="0 0 73 62.5" style="enable-background:new 0 0 73 62.5;" xml:space="preserve">
<style type="text/css">
	.st0{fill:none;stroke:#55575A;stroke-width:2;stroke-miterlimit:10;}
	.st1{clip-path:url(#SVGID_00000085964799942505008260000013416946078857255855_);}
	.st2{fill:none;stroke:#55575A;stroke-width:2;stroke-linejoin:round;}
	.st3{clip-path:url(#SVGID_00000083773138851709462000000003404915789334038148_);}
	.st4{fill:none;stroke:#55575A;stroke-width:2;stroke-linecap:round;stroke-linejoin:round;}
	.st5{clip-path:url(#SVGID_00000124862386157139887650000006034185491660842170_);}
	.st6{fill:none;stroke:#55575A;stroke-width:2;}
	.st7{fill:none;stroke:#55575A;stroke-width:2;stroke-linecap:square;stroke-miterlimit:10;}
	.st8{fill:#55575A;}
	.st9{fill:none;stroke:#55575A;stroke-width:2.1298;stroke-miterlimit:10;}
	.st10{fill:none;stroke:#55575A;stroke-width:2.0006;stroke-miterlimit:10;}
	.st11{fill:none;stroke:#55575A;stroke-width:1.8738;stroke-miterlimit:10;}
	.st12{fill:none;stroke:#55575A;stroke-width:1.6749;stroke-linejoin:round;}
	.st13{clip-path:url(#SVGID_00000137102994230355671670000013294506140699117742_);}
	.st14{clip-path:url(#SVGID_00000120530983486875073380000000814158413025641117_);}
</style>
<g>
	<g>
		<path id="Path_48882_00000036967149355980519960000016163514295554304672_" class="st0" d="M19.9,9.1v6.2h-6.2"/>
		<g>
			<defs>
				<rect id="SVGID_00000064336205630607656620000004005349194798209700_" x="8.6" y="-5.2" width="46.6" height="57.7"/>
			</defs>
			<clipPath id="SVGID_00000138561448671118703110000011441991064912288415_">
				<use xlink:href="#SVGID_00000064336205630607656620000004005349194798209700_"  style="overflow:visible;"/>
			</clipPath>
			
				<g id="Group_80875_00000020361233083485562420000001089929893531411619_" style="clip-path:url(#SVGID_00000138561448671118703110000011441991064912288415_);">
				<path id="Path_48883_00000139266551468215455190000016390176610145907113_" class="st2" d="M44.8,13.1V4.6h-26l-9.1,9.1v37.7
					h28.1"/>
			</g>
		</g>
		<line id="Line_756_00000041255493558184434510000007838964241631594167_" class="st0" x1="14.1" y1="29.1" x2="27.1" y2="29.1"/>
		<line id="Line_757_00000117652438428133906030000001515010044713715336_" class="st0" x1="14.1" y1="35.9" x2="24.7" y2="35.9"/>
		<line id="Line_758_00000083805879592704077650000003997280198573265067_" class="st0" x1="14.1" y1="42.8" x2="20.6" y2="42.8"/>
	</g>
	<g>
		<g>
			<defs>
				<rect id="SVGID_00000082337919616728008040000006075557755125854640_" x="-3.1" y="-12.1" width="58.6" height="71.8"/>
			</defs>
			<clipPath id="SVGID_00000159466989391902398430000001396583860990147200_">
				<use xlink:href="#SVGID_00000082337919616728008040000006075557755125854640_"  style="overflow:visible;"/>
			</clipPath>
		</g>
		<polygon class="st2" points="63.8,59 27.1,59 29.9,54.5 61,54.5 		"/>
		<g>
			<path class="st2" d="M48.1,30.4c6.9,1.6,11.4,8.2,10.4,15.3c-0.5,3.6-2.5,6.7-5.2,8.8"/>
			<path class="st2" d="M49.8,27.1c8.3,2.4,13.7,10.5,12.4,19.2c-0.5,3.1-1.7,5.8-3.5,8.1"/>
		</g>
		<g>
			<polyline class="st2" points="43.6,30.4 39.4,37.5 32.6,33.5 45.1,12.8 51.9,16.8 47.6,23.9 			"/>
			<polygon class="st2" points="52.7,13.9 47.3,10.7 49,8 54.4,11.2 			"/>
			<g>
				<line class="st2" x1="48.3" y1="11.3" x2="46.8" y2="13.8"/>
				<line class="st2" x1="51.7" y1="13.3" x2="50.2" y2="15.8"/>
			</g>
			<line class="st2" x1="31.1" y1="32.5" x2="41.1" y2="38.5"/>
			<path class="st2" d="M37,39.2l-0.3,0.4c-0.8,1.3-2.5,1.7-3.8,1l0,0c-1.3-0.8-1.8-2.5-1-3.8l0.2-0.4"/>
			<polygon class="st2" points="37.9,39.8 31.2,35.8 32.6,33.5 39.4,37.5 			"/>
			<path class="st2" d="M48.1,30.3c-0.8,0.6-1.8,0.9-2.9,0.7c-2.1-0.3-3.5-2.2-3.2-4.3c0.3-2.1,2.3-3.5,4.4-3.2
				c2.1,0.3,3.5,2.2,3.2,4.3C49.5,28.9,48.9,29.8,48.1,30.3"/>
		</g>
	</g>
</g>
</svg>
