<?xml version="1.0" encoding="utf-8"?>
<!-- Generator: Adobe Illustrator 26.3.1, SVG Export Plug-In . SVG Version: 6.00 Build 0)  -->
<svg version="1.1" id="Layer_1" xmlns="http://www.w3.org/2000/svg" xmlns:xlink="http://www.w3.org/1999/xlink" x="0px" y="0px"
	 width="73px" height="62.5px" viewBox="0 0 73 62.5" style="enable-background:new 0 0 73 62.5;" xml:space="preserve">
<style type="text/css">
	.st0{fill:#55575A;}
</style>
<path class="st0" d="M46.3,35.3c0,0.5-0.4,1-1,1H33.6c-0.5,0-1-0.5-1-1s0.5-1,1-1h4.9V21.6h-3.6c-0.5,0-1-0.5-1-1s0.5-1,1-1h4.6
	c0.6,0,1,0.5,1,1v13.7h4.8C45.8,34.3,46.3,34.8,46.3,35.3z"/>
<rect x="18.5" y="7.1" class="st0" width="2" height="36.1"/>
<rect x="18.5" y="53.6" class="st0" width="41.8" height="2"/>
<path class="st0" d="M60.3,61.6H18.8c-3.7,0-6.8-3-6.9-6.7h0V7.8c0-3.8,3.1-6.9,6.9-6.9h41.5v48.7H18.8c-2.7,0-4.9,2.2-4.9,4.9v0.2
	c0,2.7,2.2,4.9,4.9,4.9h41.5V61.6z M18.8,2.9c-2.7,0-4.9,2.2-4.9,4.9v41.8c1.3-1.3,3-2,4.9-2h39.5V2.9H18.8z"/>
<circle class="st0" cx="39" cy="14.8" r="1.5"/>
</svg>
