<?xml version="1.0" encoding="utf-8"?>
<!-- Generator: Adobe Illustrator 26.3.1, SVG Export Plug-In . SVG Version: 6.00 Build 0)  -->
<svg version="1.1" id="Layer_1" xmlns="http://www.w3.org/2000/svg" xmlns:xlink="http://www.w3.org/1999/xlink" x="0px" y="0px"
	 width="73px" height="62.5px" viewBox="0 0 73 62.5" style="enable-background:new 0 0 73 62.5;" xml:space="preserve">
<style type="text/css">
	.st0{fill:#55575A;}
</style>
<g>
	<path class="st0" d="M64.8,7.4h-8.3v2h8.3c1.5,0,2.6,1.1,2.6,2.6v33.3h-9.9V12.6c0-0.2-0.1-0.5-0.3-0.7l-0.6-0.7l-0.4-0.4l-0.6-0.6
		l-7.4-8l-0.4-0.5c-0.2-0.2-0.5-0.3-0.7-0.3H18.7c-1.8,0-3.4,1.7-3.4,3.6v40.4H5.4V12c0-1.5,1.1-2.6,2.6-2.6h3.6v-2H8
		c-2.5,0-4.6,2.1-4.6,4.6v37.9c0,2.5,2.1,4.6,4.6,4.6h21.3l-0.8,5h-2.7v2h21.3v-2h-2.8l-0.8-5h21.3c2.5,0,4.6-2.1,4.6-4.6V12
		C69.4,9.5,67.3,7.4,64.8,7.4z M48.1,4.9l5.4,5.9h-4.8c-0.4,0-0.6-0.2-0.6-0.6V4.9z M17.3,4.9c0-0.9,0.7-1.6,1.4-1.6h27.4v6.9
		c0,1.5,1.1,2.6,2.6,2.6h6.6l0.2,0.2v32.3H17.3V4.9z M42.3,59.5H30.5l0.8-5h10.1L42.3,59.5z M67.4,49.9c0,1.5-1.1,2.6-2.6,2.6H8
		c-1.5,0-2.6-1.1-2.6-2.6v-2.6h62V49.9z"/>
	<polygon class="st0" points="56.6,10.8 56.6,11.2 56.2,10.8 	"/>
	<rect x="30.5" y="14.8" class="st0" width="11.8" height="2"/>
	<g>
		<rect x="23.4" y="21.9" class="st0" width="26" height="2"/>
		<rect x="23.4" y="26.7" class="st0" width="26" height="2"/>
		<rect x="23.4" y="31.4" class="st0" width="26" height="2"/>
	</g>
</g>
</svg>
