<?xml version="1.0" encoding="utf-8"?>
<!-- Generator: Adobe Illustrator 26.3.1, SVG Export Plug-In . SVG Version: 6.00 Build 0)  -->
<svg version="1.1" id="Layer_1" xmlns="http://www.w3.org/2000/svg" xmlns:xlink="http://www.w3.org/1999/xlink" x="0px" y="0px"
	 width="73px" height="62.5px" viewBox="0 0 73 62.5" style="enable-background:new 0 0 73 62.5;" xml:space="preserve">
<style type="text/css">
	.st0{fill:#55575A;}
</style>
<g>
	<path class="st0" d="M37.5,52.5V60h7.8v2H27.7v-2h7.8v-7.5C23.7,52,14.2,42.2,14.2,30.2h2c0,11.2,9.1,20.3,20.3,20.3
		s20.3-9.1,20.3-20.3h2C58.8,42.2,49.3,52,37.5,52.5z"/>
	<path class="st0" d="M36.5,1.2c-8.5,0-15.4,6.9-15.4,15.4v13.6c0,8.5,6.9,15.4,15.4,15.4s15.4-6.9,15.4-15.4V16.6
		C51.9,8.1,45,1.2,36.5,1.2z M49.9,21.9h-7v2h7v6.4h-7v2h6.8c-1,6.4-6.6,11.3-13.2,11.3s-12.2-4.9-13.2-11.3h6.8v-2h-7v-6.4h7v-2h-7
		v-5.3c0-0.3,0-0.7,0-1h7v-2h-6.7c1.4-5.9,6.7-10.4,13.1-10.4s11.7,4.5,13.1,10.4h-6.7v2h7c0,0.3,0,0.7,0,1V21.9z"/>
</g>
</svg>
