<?xml version="1.0" encoding="utf-8"?>
<!-- Generator: Adobe Illustrator 26.3.1, SVG Export Plug-In . SVG Version: 6.00 Build 0)  -->
<svg version="1.1" id="Layer_1" xmlns="http://www.w3.org/2000/svg" xmlns:xlink="http://www.w3.org/1999/xlink" x="0px" y="0px"
	 width="73px" height="62.5px" viewBox="0 0 73 62.5" style="enable-background:new 0 0 73 62.5;" xml:space="preserve">
<style type="text/css">
	.st0{fill:#55575A;}
</style>
<rect x="12.8" y="28.7" class="st0" width="32" height="2.1"/>
<rect x="12.8" y="34.4" class="st0" width="28.3" height="2"/>
<rect x="12.8" y="40.1" class="st0" width="24.8" height="1.9"/>
<g>
	<path class="st0" d="M61.3,38.9l-1.1-2.2l1.1-2.1c0.2-0.4,0.1-0.9-0.3-1.1l-2.2-1.2l-0.4-2.4c-0.1-0.4-0.5-0.8-0.9-0.7L55,29.5
		l-1.8-1.7c-0.3-0.3-0.8-0.3-1.2,0l-1.8,1.7l-2.4-0.3c-0.5-0.1-0.9,0.2-0.9,0.7l-0.4,2.4l-2.2,1.2c-0.4,0.2-0.5,0.7-0.3,1.1l1.1,2.1
		l-1.1,2.2c-0.2,0.4,0,0.9,0.4,1.1l2.2,1.2l0.3,1.8h-0.1v12.6c0,0.3,0.2,0.6,0.4,0.7c0.1,0.1,0.3,0.1,0.4,0.1c0.2,0,0.3,0,0.4-0.1
		l4.5-2.7l4,2.7c0.3,0.2,0.6,0.2,0.9,0.1c0.3-0.1,0.5-0.4,0.5-0.7V44.3c0.3-0.1,0.5-0.3,0.6-0.6l0.4-2.4L61,40
		C61.4,39.8,61.5,39.3,61.3,38.9z M56.1,54L53,51.9c-0.3-0.2-0.6-0.2-0.9,0l-3.7,2.2v-9.9l1.9-0.3l1.8,1.7c0.2,0.1,0.4,0.2,0.6,0.2
		c0.2,0,0.4-0.1,0.6-0.2L55,44l1.1,0.2V54z M57.6,40c-0.2,0.1-0.4,0.3-0.4,0.6l-0.4,2l-2-0.3c-0.2,0-0.5,0-0.7,0.2l-1.5,1.5
		l-1.5-1.5c-0.2-0.1-0.4-0.2-0.6-0.2c0,0-0.1,0-0.1,0l-2,0.3l-0.4-2c0-0.2-0.2-0.5-0.4-0.6l-1.9-1l0.9-1.9c0.1-0.2,0.1-0.5,0-0.8
		l-0.9-1.8l1.9-1c0.2-0.1,0.4-0.3,0.4-0.6l0.4-2l2,0.3c0.3,0,0.5,0,0.7-0.2l1.5-1.5l1.5,1.5c0.2,0.2,0.5,0.2,0.7,0.2l2-0.3l0.4,2
		c0,0.2,0.2,0.5,0.4,0.6l1.9,1l-0.9,1.8c-0.1,0.2-0.1,0.5,0,0.8l0.9,1.9L57.6,40z"/>
</g>
<g>
	<path class="st0" d="M28.2,18.5c0,0-0.1-0.1-0.1-0.2v-5.7c0-0.1,0-0.1,0.1-0.2c0,0,0.1-0.1,0.2-0.1h4c0.1,0,0.1,0,0.2,0.1
		c0,0,0.1,0.1,0.1,0.2v0.9c0,0.1,0,0.1-0.1,0.2c0,0-0.1,0.1-0.2,0.1h-2.7V15h2.5c0.1,0,0.1,0,0.2,0.1c0,0,0.1,0.1,0.1,0.2v0.9
		c0,0.1,0,0.1-0.1,0.2c0,0-0.1,0.1-0.2,0.1h-2.5v2c0,0.1,0,0.1-0.1,0.2c0,0-0.1,0.1-0.2,0.1h-1.1C28.3,18.5,28.2,18.5,28.2,18.5z"/>
	<path class="st0" d="M33.6,18.5c0,0-0.1-0.1-0.1-0.2v-5.7c0-0.1,0-0.1,0.1-0.2c0,0,0.1-0.1,0.2-0.1H36c0.9,0,1.5,0.2,2,0.6
		c0.5,0.4,0.7,1,0.7,1.8c0,0.2,0,0.4,0,0.7s0,0.5,0,0.7c0,0.8-0.3,1.4-0.7,1.8c-0.5,0.4-1.1,0.6-2,0.6h-2.3H33.6z M36,17.3
		c0.4,0,0.7-0.1,0.9-0.3c0.2-0.2,0.3-0.5,0.3-0.9c0-0.2,0-0.4,0-0.7s0-0.5,0-0.6c0-0.4-0.1-0.7-0.3-0.9s-0.5-0.3-0.9-0.3h-0.9v3.6
		L36,17.3L36,17.3z"/>
	<path class="st0" d="M39.2,18.5l-0.1-0.1v-0.1l2.1-5.6c0-0.1,0.1-0.1,0.1-0.2c0.1,0,0.1-0.1,0.2-0.1h1.3c0.1,0,0.2,0,0.2,0.1
		c0.1,0,0.1,0.1,0.1,0.2l2.1,5.6v0.1c0,0,0,0.1-0.1,0.1L45,18.6h-1c-0.1,0-0.2-0.1-0.3-0.2l-0.3-0.9H41l-0.3,0.9
		c0,0.1-0.1,0.2-0.3,0.2h-1.1C39.3,18.5,39.3,18.5,39.2,18.5z M43,16.2l-0.8-2.3l-0.8,2.3H43z"/>
</g>
<g>
	<path class="st0" d="M58.3,62H15.1c-6.1,0-11-4.9-11-11V12.2c0-6.1,4.9-11,11-11h43.3c6.1,0,11,4.9,11,11V52h-0.1
		C68.7,57.6,64,62,58.3,62z M15.1,3.2c-5,0-9,4-9,9V51c0,5,4,9,9,9h43.2c5,0,9-4,9-9v-1h0.1V12.2c0-5-4-9-9-9H15.1z"/>
</g>
</svg>
