<?xml version="1.0" encoding="utf-8"?>
<!-- Generator: Adobe Illustrator 26.3.1, SVG Export Plug-In . SVG Version: 6.00 Build 0)  -->
<svg version="1.1" id="Layer_1" xmlns="http://www.w3.org/2000/svg" xmlns:xlink="http://www.w3.org/1999/xlink" x="0px" y="0px"
	 width="73px" height="62.5px" viewBox="0 0 73 62.5" style="enable-background:new 0 0 73 62.5;" xml:space="preserve">
<style type="text/css">
	.st0{fill:#55575A;}
</style>
<g>
	<path class="st0" d="M24.1,11.1h-2V8.6c0-0.1-0.1-0.2-0.2-0.2H10.4c-0.1,0-0.2,0.1-0.2,0.2v2.2h-2V8.6c0-1.2,1-2.2,2.2-2.2h11.5
		c1.2,0,2.2,1,2.2,2.2V11.1z"/>
	<path class="st0" d="M72.4,19.8v29.7c0,4.6-3.7,8.3-8.3,8.3v-2c3.5,0,6.3-2.8,6.3-6.3V19.8c0-3.5-2.8-6.3-6.3-6.3h-5.7l0-0.1
		c-0.8-1.5-1.6-3.5-2-4.8c-0.6-2-1-3.2-1.7-3.2H35.6c-0.5,0.5-1.4,2.5-2,3.9c-0.6,1.3-1.5,2.9-2,3.9l-0.1-0.1l0,0.1l-22.6,0
		c-3.5,0-6.3,2.8-6.3,6.3v29.7c0,3.5,2.8,6.3,6.3,6.3H24v2H8.9c-4.6,0-8.3-3.7-8.3-8.3V19.7c0-4.6,3.7-8.3,8.3-8.3h21.6
		c0.4-0.8,0.8-1.8,1.3-2.8c1.5-3.4,2.3-5.1,3.7-5.1h19.3c2.2,0,2.9,2.2,3.6,4.6c0.3,1.1,0.7,2.3,1.3,3.4h4.5
		C68.7,11.5,72.4,15.2,72.4,19.8z"/>
	<path class="st0" d="M43.3,61.5c-12.9,0-23.4-10.5-23.4-23.4c0-12.9,10.5-23.4,23.4-23.4c12.9,0,23.4,10.5,23.4,23.4
		C66.7,51,56.2,61.5,43.3,61.5z M43.3,16.7c-11.8,0-21.4,9.6-21.4,21.4s9.6,21.4,21.4,21.4s21.4-9.6,21.4-21.4S55.1,16.7,43.3,16.7z
		"/>
	<path class="st0" d="M13.2,31.4c-3.4,0-6.1-2.7-6.1-6.1c0-3.4,2.7-6.1,6.1-6.1c3.4,0,6.1,2.7,6.1,6.1
		C19.3,28.7,16.6,31.4,13.2,31.4z M13.2,21.2c-2.3,0-4.1,1.8-4.1,4.1s1.8,4.1,4.1,4.1s4.1-1.8,4.1-4.1S15.5,21.2,13.2,21.2z"/>
	<path class="st0" d="M43.3,57.3c-10.6,0-19.2-8.6-19.2-19.2s8.6-19.2,19.2-19.2s19.2,8.6,19.2,19.2S53.9,57.3,43.3,57.3z
		 M43.3,20.9c-9.5,0-17.2,7.7-17.2,17.2c0,9.5,7.7,17.2,17.2,17.2c9.5,0,17.2-7.7,17.2-17.2C60.5,28.6,52.8,20.9,43.3,20.9z"/>
</g>
</svg>
