<?xml version="1.0" encoding="utf-8"?>
<!-- Generator: Adobe Illustrator 26.3.1, SVG Export Plug-In . SVG Version: 6.00 Build 0)  -->
<svg version="1.1" id="Layer_1" xmlns="http://www.w3.org/2000/svg" xmlns:xlink="http://www.w3.org/1999/xlink" x="0px" y="0px"
	 width="73px" height="62.5px" viewBox="0 0 73 62.5" style="enable-background:new 0 0 73 62.5;" xml:space="preserve">
<style type="text/css">
	.st0{fill:#55575A;}
</style>
<g>
	<path class="st0" d="M62.1,26.9v-16c0-2.2-1.1-6.7-5.8-7.7L55.1,3l-0.4,24.2c-0.4,0.4-0.6,0.9-0.6,1.4v28.8c0,1,1,2,2,2h4.8
		c1.1,0,2-0.9,2-2V28.5C62.9,27.9,62.6,27.3,62.1,26.9z M57.1,5.6c3,1.4,3,5.1,3,5.3v15.4h-3.4L57.1,5.6z M56.1,57.3V28.5h4.8
		l0,28.8H56.1z"/>
	<path class="st0" d="M49.3,45.1h-3.6v-8.9h3.4c1.1,0,2-0.9,2-2v-5.4c0-1-0.9-2-2-2h-3.4v-8.9h3.4c1.1,0,2-1,2-2v-5.4
		c0-1.1-0.9-2-2-2h-3.4V0.8h-2.1v7.7h-3.7c-1.2,0-2,0.8-2,2v1.8l-7.4,0.1l2-2c0.4-0.4,0.6-0.9,0.6-1.5c0-0.5-0.2-1.1-0.6-1.5
		l-2.2-2.2c-0.8-0.8-2.1-0.8-2.9,0l-3.3,3.3h-9.6l-0.2,0c-1.6,0.3-2.3,1.8-2.3,3.1v0.8l-0.8,0.1c-1.4,0-3.5,1-3.6,3.8
		c0,2.1,0.1,10.8,0.1,11.5c0,0.3,0,1.3,0.8,2.2c0.8,0.8,1.9,1.2,3.5,1.3v0.9l-0.8,0.1c-1.4,0-3.5,1-3.6,3.8c0,2.1,0.1,10.8,0.1,11.5
		c0,0.3,0,1.3,0.8,2.2c0.8,0.8,2,1.3,3.7,1.3h0.1l0,1.2c0,0.4,0.1,1.9,2,3l0.2,0.1h11.6l2.3,1.8c0.3,0.3,0.8,0.5,1.3,0.5
		c0.6,0,1.4-0.2,2-0.8l0.4-0.5c0.5-0.5,0.6-1.3,0.6-1.7s-0.1-1.2-0.7-1.8l-1.8-1.5l7.7-0.1v1.1c0,1.1,0.9,2,2,2h3.5v7.6h2.1v-7.6
		h3.6c1.2,0,2-0.8,2-2v-5.4C51.3,46,50.3,45.1,49.3,45.1z M49.1,28.8l0,5.4h-9.2v-5.4H49.1z M39.9,10.5h9.2L49,15.9h-9.1V10.5z
		 M14,11.6c0,0,0-0.9,0.6-1.1h10.3l4-3.9l2.2,2.3l-3.5,3.4l-1.9,0l0,2.1l0.6,0l4.1,3.4c0.1,0.2,0.1,0.5,0,0.6l-0.6,0.6
		c-0.1,0.1-0.4,0.1-0.6,0.1l-2.9-2.3H14.8C14,16.4,14,15.8,14,15.8V11.6z M10,28.7c-0.3-0.3-0.3-0.7-0.3-0.8c0,0,0,0,0,0l0-0.1v-0.1
		c0,0-0.1-9.3-0.1-11.4c0.1-1.7,1.2-1.8,1.7-1.8l0.7-0.1v1.4c0,0.4,0.1,1.9,2,3l0.2,0.1h11.5l2.3,1.8c0.2,0.2,0.6,0.4,1,0.4
		c0.1,0,0.2,0,0.4,0c0.1,0,0.3,0,0.4,0c0.3,0,1-0.2,1.5-0.7l0.6-0.6c0.8-0.8,0.8-2.6-0.1-3.5l-2.4-2l8.5-0.1v1.6c0,1.1,0.9,2,2,2
		h3.7v8.9h-3.7c-1.1,0-2,0.9-2,2v1.8l-7.6,0.1l2.2-2.2c0.4-0.4,0.6-0.9,0.6-1.5s-0.2-1.1-0.6-1.5l-2.2-2.2c-0.4-0.4-0.9-0.6-1.5-0.6
		c-0.5,0-1.1,0.2-1.5,0.6l-3.3,3.3h-9.6l-0.2,0c-1.5,0.2-2.2,1.5-2.3,2.7C11.1,29.3,10.4,29.1,10,28.7z M25.8,32.7l0.7,0l3.9,3.3
		c0.1,0.2,0.1,0.5,0,0.6l-0.6,0.6c-0.1,0.1-0.4,0.2-0.6,0.1L26.6,35H14.8C14,34.5,14,33.9,14,33.9v-4.2c0,0,0-0.9,0.6-1.1h10.3
		l4-3.9l2.2,2.3l-3.7,3.7l-1.6,0L25.8,32.7z M30.8,54.4c0.1,0.2,0,0.5,0,0.7l-0.4,0.5c-0.1,0.1-0.4,0.1-0.6,0.1l-2.9-2.3H15.1
		c-0.8-0.5-0.8-1.1-0.8-1.1l-0.1-4.2c0,0,0-0.9,0.6-1.1h10.3l4-3.9l2.2,2.2l0.1,0.1l-4.1,4.1l-1.5,0l0,2l1.5,0h0L30.8,54.4z
		 M38.1,47.1v2.3l-7.9,0.1l2.7-2.7c0.4-0.4,0.6-1,0.6-1.5c0-0.5-0.3-1.1-0.7-1.4l-2.2-2.2c-0.4-0.4-0.9-0.6-1.5-0.6
		c-0.5,0-1.1,0.2-1.5,0.6L24.3,45h-9.6l-0.2,0c-1.6,0.3-2.3,1.8-2.3,3.1l0,1c-1.1,0-1.8-0.2-2.2-0.6c-0.3-0.3-0.3-0.7-0.3-0.8
		c0,0,0,0,0,0l0-0.1v-0.1c0,0-0.1-9.3-0.1-11.5c0.1-1.7,1.2-1.8,1.7-1.8l0.8-0.1c0.1,0.6,0.5,1.7,2,2.6l0.2,0.1h11.6l2.1,1.8
		c0.3,0.3,0.8,0.5,1.2,0.5c0.1,0,0.1,0,0.2,0c0.8,0,1.5-0.3,1.9-0.7l0.6-0.6c0.5-0.5,0.6-1.3,0.6-1.7s-0.1-1.2-0.7-1.8l-2.2-1.9
		l8.3-0.1v1.6c0,1.1,0.9,2,2,2h3.7v8.9h-3.5C39,45.1,38.1,46,38.1,47.1z M49.3,52.5h-9.2v-5.4h9.2V52.5
		C49.3,52.5,49.3,52.5,49.3,52.5z"/>
</g>
</svg>
