<?xml version="1.0" encoding="utf-8"?>
<!-- Generator: Adobe Illustrator 26.3.1, SVG Export Plug-In . SVG Version: 6.00 Build 0)  -->
<svg version="1.1" id="Layer_1" xmlns="http://www.w3.org/2000/svg" xmlns:xlink="http://www.w3.org/1999/xlink" x="0px" y="0px"
	 width="73px" height="62.5px" viewBox="0 0 73 62.5" style="enable-background:new 0 0 73 62.5;" xml:space="preserve">
<style type="text/css">
	.st0{fill:#55575A;}
</style>
<g>
	<rect x="21.6" y="14.2" class="st0" width="17.4" height="2"/>
	<rect x="21.6" y="20.5" class="st0" width="28.2" height="2"/>
	<rect x="21.6" y="26.9" class="st0" width="28.2" height="2"/>
	<path class="st0" d="M56.3,2.8H16.7c-0.5,0-1,0.5-1,1v53.5c0,0.5,0.5,1,1,1h18.8v2.6c0,0.3,0.2,0.7,0.5,0.8
		c0.2,0.1,0.3,0.2,0.5,0.2c0.2,0,0.3,0,0.4-0.1l5.5-2.6l5,2.6c0.3,0.2,0.7,0.2,1,0c0.3-0.2,0.5-0.5,0.5-0.8v-2.4h7.5
		c0.5,0,1-0.5,1-1V3.8C57.3,3.2,56.8,2.8,56.3,2.8z M36.6,45.7l-2.2-1.1l1.1-2.2c0.1-0.3,0.1-0.6,0-0.9l-1.1-2.2l2.2-1.1
		c0.3-0.1,0.5-0.4,0.5-0.7l0.4-2.4l2.4,0.4c0.3,0,0.6-0.1,0.8-0.3l1.8-1.7l1.8,1.7c0.2,0.2,0.5,0.3,0.8,0.3l2.4-0.4l0.4,2.4
		c0,0.3,0.2,0.6,0.5,0.7l2.2,1.1l-1.1,2.2c-0.1,0.3-0.1,0.6,0,0.9l1.1,2.2l-2.2,1.1c-0.3,0.1-0.5,0.4-0.5,0.7l-0.4,2.4l-2.4-0.4
		c-0.3,0-0.6,0.1-0.8,0.3l-1.8,1.7l-1.8-1.7c-0.2-0.2-0.4-0.3-0.7-0.3c0,0-0.1,0-0.1,0l-2.4,0.4l-0.4-2.4
		C37,46.1,36.8,45.9,36.6,45.7z M46.8,59.2l-3.9-2c-0.3-0.1-0.6-0.2-0.9,0l-4.5,2.1v-8.4l2.3-0.3l2.1,2.1c0.2,0.2,0.4,0.3,0.7,0.3
		s0.5-0.1,0.7-0.3l2.2-2.1l1.4,0.2V59.2z M55.3,56.5h-6.5V51c0.4-0.1,0.6-0.4,0.7-0.8l0.5-2.9l2.6-1.4c0.5-0.2,0.7-0.8,0.4-1.3
		l-1.3-2.7l1.3-2.7c0.2-0.5,0-1.1-0.4-1.3L50,36.5l-0.5-2.9c-0.1-0.5-0.6-0.9-1.1-0.8l-2.9,0.4l-2.2-2.1c-0.4-0.4-1-0.4-1.4,0
		l-2.1,2.1l-2.9-0.4c-0.5-0.1-1,0.3-1.1,0.8l-0.5,2.9l-2.6,1.4c-0.5,0.2-0.7,0.8-0.4,1.3l1.3,2.7l-1.3,2.7c-0.2,0.5,0,1.1,0.4,1.3
		l2.6,1.4l0.4,2h-0.1v7H17.7V4.8h37.6V56.5z"/>
</g>
</svg>
