<?xml version="1.0" encoding="utf-8"?>
<!-- Generator: Adobe Illustrator 26.3.1, SVG Export Plug-In . SVG Version: 6.00 Build 0)  -->
<svg version="1.1" id="Layer_1" xmlns="http://www.w3.org/2000/svg" xmlns:xlink="http://www.w3.org/1999/xlink" x="0px" y="0px"
	 width="73px" height="62.5px" viewBox="0 0 73 62.5" style="enable-background:new 0 0 73 62.5;" xml:space="preserve">
<style type="text/css">
	.st0{fill:#55575A;}
</style>
<rect x="33.7" y="25.2" class="st0" width="13.6" height="2"/>
<rect x="33.7" y="29.7" class="st0" width="9.1" height="2"/>
<rect x="33.7" y="36.6" class="st0" width="13.6" height="2"/>
<rect x="33.7" y="41.1" class="st0" width="9.1" height="2"/>
<rect x="33.7" y="47.9" class="st0" width="13.6" height="2"/>
<rect x="33.7" y="52.5" class="st0" width="9.1" height="2"/>
<polygon class="st0" points="22.3,32.1 19.3,29.2 20.7,27.8 22.3,29.3 26.2,25.5 27.6,26.9 "/>
<polygon class="st0" points="22.3,43.5 19.3,40.5 20.7,39.1 22.3,40.7 26.2,36.9 27.6,38.3 "/>
<polygon class="st0" points="22.3,54.9 19.3,51.9 20.7,50.5 22.3,52.1 26.2,48.2 27.6,49.6 "/>
<polygon class="st0" points="27.7,20.8 19.7,20.8 19.7,18.8 25.7,18.8 25.7,12.9 27.7,12.9 "/>
<path class="st0" d="M54.7,7.1c-0.2-0.2-0.4-0.3-0.7-0.3H24.9c-0.3,0-0.5,0.1-0.7,0.3L14,17.3c-0.2,0.2-0.3,0.4-0.3,0.7v42.2
	c0,0.5,0.5,1,1,1H54c0.5,0,1-0.5,1-1V7.8C55,7.5,54.9,7.3,54.7,7.1z M53,59.2H15.7V18.4l9.6-9.6H53V59.2z"/>
<path class="st0" d="M60.3,55.2h-2V3.8H30.1v-2h29.2c0.6,0,1,0.4,1,1V55.2z"/>
</svg>
