<?xml version="1.0" encoding="utf-8"?>
<!-- Generator: Adobe Illustrator 26.3.1, SVG Export Plug-In . SVG Version: 6.00 Build 0)  -->
<svg version="1.1" id="Layer_1" xmlns="http://www.w3.org/2000/svg" xmlns:xlink="http://www.w3.org/1999/xlink" x="0px" y="0px"
	 width="73px" height="62.5px" viewBox="0 0 73 62.5" style="enable-background:new 0 0 73 62.5;" xml:space="preserve">
<style type="text/css">
	.st0{fill:#55575A;}
</style>
<path class="st0" d="M29.8,44.5c-0.2,0-0.3,0-0.5-0.1c-0.3-0.2-0.5-0.5-0.5-0.9V26.7c0-0.4,0.2-0.7,0.5-0.9c0.3-0.2,0.7-0.2,1,0
	l14.6,8.4c0.3,0.2,0.5,0.5,0.5,0.9s-0.2,0.7-0.5,0.9l-14.6,8.4C30.1,44.5,30,44.5,29.8,44.5z M30.8,28.4v13.3l11.6-6.7L30.8,28.4z"
	/>
<g>
	<path class="st0" d="M58.2,61.9H14.9c-6.1,0-11-4.9-11-11V12.1c0-6.1,4.9-11,11-11h43.3c6.1,0,11,4.9,11,11v38.8
		C69.2,57,64.3,61.9,58.2,61.9z M14.9,3.1c-5,0-9,4-9,9v38.8c0,5,4,9,9,9h43.3c5,0,9-4,9-9V12.1c0-5-4-9-9-9H14.9z"/>
</g>
<g>
	<rect x="10.3" y="14.8" class="st0" width="52.4" height="2"/>
	<circle class="st0" cx="14.4" cy="8.7" r="1.6"/>
	<circle class="st0" cx="20.1" cy="8.7" r="1.6"/>
	<circle class="st0" cx="26.3" cy="8.7" r="1.6"/>
</g>
</svg>
