<?xml version="1.0" encoding="utf-8"?>
<!-- Generator: Adobe Illustrator 26.3.1, SVG Export Plug-In . SVG Version: 6.00 Build 0)  -->
<svg version="1.1" id="Layer_1" xmlns="http://www.w3.org/2000/svg" xmlns:xlink="http://www.w3.org/1999/xlink" x="0px" y="0px"
	 width="73px" height="62.5px" viewBox="0 0 73 62.5" style="enable-background:new 0 0 73 62.5;" xml:space="preserve">
<style type="text/css">
	.st0{fill:#55575A;}
</style>
<g>
	<path class="st0" d="M65.8,47.5L52.3,34V22.1H11.4V52h37.4v-2h-6.4c0.2-0.4,0.3-0.9,0.3-1.4v-2.1c0-2.3-1.3-4.3-3.4-5.3
		c-1.5-0.7-3.5-1.5-5.9-1.9c2.5-1.1,4.3-3.6,4.3-6.5c0-3.9-3.2-7.1-7.1-7.1c-3.9,0-7.1,3.2-7.1,7.1c0,2.9,1.8,5.5,4.3,6.5
		c-2.4,0.4-4.4,1.2-5.8,1.9c-2,1-3.4,3-3.4,5.3v2.1c0,0.5,0.1,1,0.3,1.4h-5.6V24.1h36.9v30.1l4-4.5l3.4,6.2l5.5-3.2l-2.9-5.3H65.8z
		 M25.5,32.8c0-2.8,2.3-5.1,5.1-5.1s5.1,2.3,5.1,5.1s-2.3,5.1-5.1,5.1S25.5,35.6,25.5,32.8z M20.7,46.5c0-1.5,0.8-2.8,2.2-3.5
		c1.7-0.9,4.5-1.9,7.8-1.9c3.2,0,6,1.1,7.8,1.9c1.4,0.7,2.2,2,2.2,3.5v2.1c0,0.8-0.7,1.4-1.4,1.4h-17c-0.9,0-1.6-0.6-1.6-1.4V46.5z
		 M60.6,52l-2.1,1.2l-3.8-6.9L52.3,49V36.8l8.7,8.7h-4L60.6,52z"/>
	<rect x="55.3" y="27.6" transform="matrix(0.7071 -0.7071 0.7071 0.7071 -3.2149 49.3387)" class="st0" width="5.2" height="2"/>
	<rect x="58.6" y="33" class="st0" width="4.8" height="2"/>
	<g>
		<path class="st0" d="M61,62H13C6.9,62,2,57.1,2,51V12.2c0-6.1,4.9-11,11-11h48c6.1,0,11,4.9,11,11V51C72,57.1,67.1,62,61,62z
			 M13,3.2c-5,0-9,4-9,9V51c0,5,4,9,9,9h48c5,0,9-4,9-9V12.2c0-5-4-9-9-9H13z"/>
	</g>
	<g>
		<rect x="10.5" y="14.8" class="st0" width="52.4" height="2"/>
		<circle class="st0" cx="14.6" cy="8.7" r="1.6"/>
		<circle class="st0" cx="20.3" cy="8.7" r="1.6"/>
		<circle class="st0" cx="26.5" cy="8.7" r="1.6"/>
	</g>
</g>
</svg>
