<?xml version="1.0" encoding="utf-8"?>
<!-- Generator: Adobe Illustrator 26.3.1, SVG Export Plug-In . SVG Version: 6.00 Build 0)  -->
<svg version="1.1" id="Layer_1" xmlns="http://www.w3.org/2000/svg" xmlns:xlink="http://www.w3.org/1999/xlink" x="0px" y="0px"
	 width="73px" height="62.5px" viewBox="0 0 73 62.5" style="enable-background:new 0 0 73 62.5;" xml:space="preserve">
<style type="text/css">
	.st0{fill:#55575A;}
	.st1{clip-path:url(#SVGID_00000072279348195873500010000014626749917844806542_);}
	.st2{clip-path:url(#SVGID_00000137104000551747271630000017305745496384927664_);}
</style>
<g id="Group_81070" transform="translate(-576.661 -1819.208)">
	<polygon class="st0" points="602.9,1843.4 595.3,1843.4 595.3,1841.4 600.9,1841.4 600.9,1835.8 602.9,1835.8 	"/>
	<g id="Group_80876" transform="translate(576.661 1819.208)">
		<g>
			<g>
				<defs>
					<rect id="SVGID_1_" x="12.9" y="1.3" width="49.4" height="61.1"/>
				</defs>
				<clipPath id="SVGID_00000048466137804699405880000011985942388846258321_">
					<use xlink:href="#SVGID_1_"  style="overflow:visible;"/>
				</clipPath>
				<g id="Group_80875" style="clip-path:url(#SVGID_00000048466137804699405880000011985942388846258321_);">
					<path class="st0" d="M51.2,62.3H14c-0.6,0-1-0.4-1-1V21.4c0-0.3,0.1-0.5,0.3-0.7l9.6-9.6c0.2-0.2,0.4-0.3,0.7-0.3h27.6
						c0.6,0,1,0.4,1,1v49.5C52.2,61.9,51.8,62.3,51.2,62.3z M15,60.3h35.2V12.8H24l-9,9V60.3z"/>
				</g>
			</g>
		</g>
	</g>
	<path class="st0" d="M633.8,1875.8h-2v-48.5h-26.6v-2h27.6c0.6,0,1,0.4,1,1V1875.8z"/>
	<g id="Group_80878" transform="translate(576.661 1819.208)">
		<g>
			<g>
				<defs>
					<rect id="SVGID_00000100363000952472086770000001465335656614282942_" x="12.9" y="1.3" width="49.4" height="61.1"/>
				</defs>
				<clipPath id="SVGID_00000074438311566224343680000018121900878725359744_">
					<use xlink:href="#SVGID_00000100363000952472086770000001465335656614282942_"  style="overflow:visible;"/>
				</clipPath>
				<g id="Group_80877" style="clip-path:url(#SVGID_00000074438311566224343680000018121900878725359744_);">
					<path class="st0" d="M62.2,51.9h-2V3.4H33.6v-2h27.6c0.6,0,1,0.4,1,1V51.9z"/>
				</g>
			</g>
		</g>
	</g>
	<rect x="598.9" y="1854.5" class="st0" width="20.7" height="2"/>
	<rect x="598.9" y="1861.7" class="st0" width="20.7" height="2"/>
	<rect x="598.9" y="1869" class="st0" width="20.7" height="2"/>
</g>
</svg>
