<svg xmlns="http://www.w3.org/2000/svg" width="72.999" height="98.015" viewBox="0 0 72.999 98.015">
  <g id="benifit-3" transform="translate(-1400.5 -2818.133)">
    <path id="Path_48830" data-name="Path 48830" d="M23.175,9.446a8.195,8.195,0,1,1-8.194-8.2A8.192,8.192,0,0,1,23.175,9.446Z" transform="translate(1403.377 2818.957)" fill="none" stroke="#394552" stroke-miterlimit="10" stroke-width="2.5"/>
    <path id="Path_48831" data-name="Path 48831" d="M32.2,36.446,30.927,23.787a6.55,6.55,0,0,0-6.364-5.754H10.093a6.548,6.548,0,0,0-6.364,5.754L1.27,48.191c-.318,3.164,3.277,5.679,6.288,6.764l.779,32.071" transform="translate(1401.031 2825.778)" fill="#fff" stroke="#9b001f" stroke-linecap="round" stroke-linejoin="round" stroke-width="2.5"/>
    <path id="Path_48832" data-name="Path 48832" d="M64.341,57.852a24.059,24.059,0,1,1-24.06-24.06A24.062,24.062,0,0,1,64.341,57.852Z" transform="translate(1407.379 2832.46)" fill="none" stroke="#394552" stroke-linejoin="round" stroke-width="2.5"/>
    <path id="Path_48833" data-name="Path 48833" d="M28.786,60.246A5.989,5.989,0,0,0,34.98,66a5.987,5.987,0,0,0,6.193-5.759c0-3.18-3.306-4.574-6.207-6.046s-6.206-2.864-6.206-6.045A5.986,5.986,0,0,1,34.951,42.4a5.988,5.988,0,0,1,6.194,5.759" transform="translate(1412.694 2836.107)" fill="none" stroke="#394552" stroke-linecap="round" stroke-miterlimit="10" stroke-width="2.5"/>
    <line id="Line_687" data-name="Line 687" y1="3.94" transform="translate(1447.645 2874.535)" fill="none" stroke="#394552" stroke-linecap="round" stroke-miterlimit="10" stroke-width="2.5"/>
    <line id="Line_688" data-name="Line 688" y1="3.939" transform="translate(1447.645 2902.143)" fill="none" stroke="#394552" stroke-linecap="round" stroke-miterlimit="10" stroke-width="2.5"/>
    <rect id="Rectangle_3589" data-name="Rectangle 3589" width="72.999" height="98.015" transform="translate(1400.5 2818.133)" fill="none"/>
  </g>
</svg>
