<svg xmlns="http://www.w3.org/2000/svg" width="72.775" height="98.016" viewBox="0 0 72.775 98.016">
  <g id="benifit-5" transform="translate(-923.613 -3117.345)">
    <path id="Path_48845" data-name="Path 48845" d="M23.157,9.437A8.186,8.186,0,1,1,14.969,1.25,8.185,8.185,0,0,1,23.157,9.437Z" transform="translate(926.478 3117.872)" fill="none" stroke="#394553" stroke-miterlimit="10" stroke-width="2.5"/>
    <path id="Path_48846" data-name="Path 48846" d="M32.1,35.958,30.892,23.923a6.544,6.544,0,0,0-6.358-5.748H10.083a6.539,6.539,0,0,0-6.357,5.748L1.27,48.3c-.319,3.162,3.273,5.674,6.281,6.758l.778,32.035" transform="translate(924.141 3125.021)" fill="none" stroke="#9b001f" stroke-linecap="round" stroke-linejoin="round" stroke-width="2.5"/>
    <path id="Path_48913" data-name="Path 48913" d="M48.4,0H0" transform="translate(946.41 3189.568)" fill="none" stroke="#394553" stroke-width="2.5"/>
    <path id="Path_48847" data-name="Path 48847" d="M26.723,50.84c.152,6.884,2.27,14.945,8.167,23.757" transform="translate(934.9 3138.818)" fill="none" stroke="#394553" stroke-linejoin="round" stroke-width="2.5"/>
    <path id="Path_48848" data-name="Path 48848" d="M41.651,51.03c-.2,6.825-2.34,14.79-8.162,23.486" transform="translate(937.758 3138.898)" fill="none" stroke="#394553" stroke-linejoin="round" stroke-width="2.5"/>
    <path id="Path_48849" data-name="Path 48849" d="M34.78,34.03a36.223,36.223,0,0,0-7.795,17.815" transform="translate(935.01 3131.718)" fill="none" stroke="#394553" stroke-linejoin="round" stroke-width="2.5"/>
    <path id="Path_48850" data-name="Path 48850" d="M33.489,34.03a36.224,36.224,0,0,1,7.795,17.817" transform="translate(937.758 3131.718)" fill="none" stroke="#394553" stroke-linejoin="round" stroke-width="2.5"/>
    <path id="Path_48851" data-name="Path 48851" d="M64.169,57.915a24,24,0,1,1-24.005-24A24,24,0,0,1,64.169,57.915Z" transform="translate(930.44 3131.668)" fill="none" stroke="#394553" stroke-linejoin="round" stroke-width="2.5"/>
    <rect id="Rectangle_3594" data-name="Rectangle 3594" width="72.775" height="98.016" transform="translate(923.613 3117.345)" fill="none"/>
  </g>
</svg>
