<svg xmlns="http://www.w3.org/2000/svg" width="60.519" height="79.591" viewBox="0 0 60.519 79.591">
  <g id="benifit-6" transform="translate(-1406.74 -3136.663)">
    <path id="Path_48842" data-name="Path 48842" d="M40.989,34.518H31.362V24.9H21.525v9.623H11.9v9.836h9.623v9.623h9.836V44.354h9.628Z" transform="translate(1410.555 3144.643)" fill="none" stroke="#9b001f" stroke-miterlimit="10" stroke-width="2.5"/>
    <path id="Path_48843" data-name="Path 48843" d="M53.185,1.25H15.992L1.25,14.046V72.258A5.3,5.3,0,0,0,6.532,77.54H53.185a5.3,5.3,0,0,0,5.282-5.282V6.532A5.3,5.3,0,0,0,53.185,1.25Z" transform="translate(1407.141 3137.063)" fill="none" stroke="#394553" stroke-miterlimit="10" stroke-width="2.5"/>
    <path id="Path_48844" data-name="Path 48844" d="M16.623,1.514V18.441H6.7" transform="translate(1408.888 3137.148)" fill="none" stroke="#394553" stroke-miterlimit="10" stroke-width="2.5"/>
    <rect id="Rectangle_3593" data-name="Rectangle 3593" width="60.519" height="79.591" transform="translate(1406.74 3136.663)" fill="none"/>
  </g>
</svg>
