<svg xmlns="http://www.w3.org/2000/svg" width="72.709" height="127.452" viewBox="0 0 72.709 127.452">
  <g id="benifit-4" transform="translate(-407.371 -3088.803)">
    <line id="Line_695" data-name="Line 695" x2="25.004" transform="translate(431.298 3203.678)" fill="none" stroke="#394553" stroke-linecap="round" stroke-linejoin="round" stroke-width="2.5"/>
    <line id="Line_696" data-name="Line 696" y1="6.292" transform="translate(443.726 3090.053)" fill="none" stroke="#394553" stroke-linecap="round" stroke-linejoin="round" stroke-width="2.5"/>
    <line id="Line_697" data-name="Line 697" y1="5.112" x2="5.092" transform="translate(473.221 3133.859)" fill="none" stroke="#394553" stroke-linecap="round" stroke-linejoin="round" stroke-width="2.5"/>
    <line id="Line_698" data-name="Line 698" x2="5.089" y2="5.112" transform="translate(409.139 3133.859)" fill="none" stroke="#394553" stroke-linecap="round" stroke-linejoin="round" stroke-width="2.5"/>
    <path id="Path_48839" data-name="Path 48839" d="M34.1,12.817C18.823,12.817,6.4,25,6.4,39.983c0,6.263,1.71,11.54,5.008,15.6,1.161,1.257,2.345,2.372,3.488,3.45,3.867,3.649,7.533,7.137,8.648,14.492H44.66c1.116-7.407,4.8-10.861,8.682-14.514,1.139-1.07,2.318-2.18,3.423-3.368,3.543-4.186,5.059-8.867,5.059-15.657C61.825,25,49.388,12.817,34.1,12.817Z" transform="translate(409.689 3121.83)" fill="none" stroke="#394553" stroke-miterlimit="10" stroke-width="2.5"/>
    <path id="Path_48840" data-name="Path 48840" d="M19.946,69.637h3.665a7.4,7.4,0,0,0,5.76,3.223,7.406,7.406,0,0,0,5.76-3.223h3.663" transform="translate(414.429 3141.708)" fill="none" stroke="#394553" stroke-linecap="round" stroke-linejoin="round" stroke-width="2.5"/>
    <path id="Path_48841" data-name="Path 48841" d="M17.3,33.9l9.371,12.979,17.279-20.65" transform="translate(413.504 3126.523)" fill="none" stroke="#9b001f" stroke-linecap="round" stroke-linejoin="round" stroke-width="2.5"/>
    <rect id="Rectangle_3592" data-name="Rectangle 3592" width="72.549" height="98.908" transform="translate(407.451 3117.347)" fill="none"/>
  </g>
</svg>
