<svg xmlns="http://www.w3.org/2000/svg" xmlns:xlink="http://www.w3.org/1999/xlink" width="158.128" height="38.573" viewBox="0 0 158.128 38.573">
  <defs>
    <clipPath id="clip-path">
      <path id="Path_47487" data-name="Path 47487" d="M0,0H158.128V-38.573H0Z" fill="none"/>
    </clipPath>
  </defs>
  <g id="Group_79516" data-name="Group 79516" transform="translate(0 38.573)">
    <g id="Group_79515" data-name="Group 79515" clip-path="url(#clip-path)">
      <g id="Group_79507" data-name="Group 79507" transform="translate(5.555 -38.573)">
        <path id="Path_47479" data-name="Path 47479" d="M0,0S-5.555,0-5.555,5.555v27.44s0,5.555,5.555,5.555H27.44s5.555,0,5.555-5.555V5.555S32.995,0,27.44,0Z" fill="#bc1f25"/>
      </g>
      <g id="Group_79508" data-name="Group 79508" transform="translate(29.064 -23.49)">
        <path id="Path_47480" data-name="Path 47480" d="M0,0A3.611,3.611,0,0,0,3.611,3.611,3.611,3.611,0,0,0,7.223,0,3.612,3.612,0,0,0,3.611-3.612C.9-3.612-6.178-7.21-6.178-9.2a3.611,3.611,0,0,0-3.609-3.611A3.611,3.611,0,0,0-13.4-9.2c0,1.995-7.078,5.593-9.79,5.593A3.612,3.612,0,0,0-26.8,0a3.611,3.611,0,0,0,3.611,3.611A3.612,3.612,0,0,0-19.574,0c0-2,7.071-5.593,9.787-5.593S0-2,0,0" fill="#fff"/>
      </g>
      <g id="Group_79509" data-name="Group 79509" transform="translate(29.064 -14.696)">
        <path id="Path_47481" data-name="Path 47481" d="M0,0A3.612,3.612,0,0,0,3.611,3.612,3.612,3.612,0,0,0,7.223,0,3.612,3.612,0,0,0,3.611-3.612C.9-3.612-6.178-7.21-6.178-9.2a3.611,3.611,0,0,0-3.609-3.611A3.611,3.611,0,0,0-13.4-9.2c0,1.995-7.078,5.593-9.79,5.593A3.612,3.612,0,0,0-26.8,0a3.611,3.611,0,0,0,3.611,3.611A3.612,3.612,0,0,0-19.574,0c0-2,7.071-5.593,9.787-5.593S0-2,0,0" fill="#fff"/>
      </g>
      <g id="Group_79510" data-name="Group 79510" transform="translate(29.064 -5.902)">
        <path id="Path_47482" data-name="Path 47482" d="M0,0A3.612,3.612,0,0,0,3.611,3.612,3.612,3.612,0,0,0,7.223,0,3.612,3.612,0,0,0,3.611-3.612C.9-3.612-6.178-7.21-6.178-9.2a3.611,3.611,0,0,0-3.609-3.611A3.611,3.611,0,0,0-13.4-9.2c0,1.995-7.078,5.593-9.79,5.593A3.612,3.612,0,0,0-26.8,0a3.611,3.611,0,0,0,3.611,3.611A3.612,3.612,0,0,0-19.574,0c0-2,7.071-5.593,9.787-5.593S0-2,0,0" fill="#fff"/>
      </g>
      <g id="Group_79511" data-name="Group 79511" transform="translate(156.344 -0.596)">
        <path id="Path_47483" data-name="Path 47483" d="M0,0H.27V-.6h.2L.834,0h.285L.734-.623a.373.373,0,0,0,.353-.4c0-.284-.166-.443-.519-.443H0ZM.27-1.243h.2c.165,0,.349.007.349.2S.633-.831.468-.831H.27ZM-.793-.727A1.29,1.29,0,0,0,.5.561,1.29,1.29,0,0,0,1.783-.727,1.29,1.29,0,0,0,.5-2.015,1.29,1.29,0,0,0-.793-.727m.229,0A1.059,1.059,0,0,1,.5-1.786,1.059,1.059,0,0,1,1.554-.727,1.059,1.059,0,0,1,.5.332,1.059,1.059,0,0,1-.564-.727" fill="#9a9b9f"/>
      </g>
      <g id="Group_79512" data-name="Group 79512" transform="translate(61.035 -13.593)">
        <path id="Path_47484" data-name="Path 47484" d="M0,0H2.946V-11.152h4.98c3.507,0,8.136-1.438,8.136-6.874,0-5.191-4.138-6.8-8.7-6.8H0ZM2.946-22.094h4.98c2.946,0,4.98,1.332,4.98,4.1s-2.034,4.1-4.98,4.1H2.946ZM19.306,0h2.946V-24.83H19.306Zm8.312,0h2.946V-20.621h.07L45.013,0H48.73V-24.83H45.784V-4.208h-.07L31.335-24.83H27.618ZM51.349,0h3.332l2.561-6.1H69.657L72.182,0h3.436L65.062-24.83H62.291ZM68.535-8.838H58.4l5.156-12.2h.07ZM78.237,0H92.546V-2.735H81.184v-22.1H78.237Z" fill="#090503"/>
      </g>
      <g id="Group_79513" data-name="Group 79513" transform="translate(56.743 -35.786)">
        <path id="Path_47485" data-name="Path 47485" d="M0,0A8.154,8.154,0,0,0-6.648-2.787c-4.163,0-8.092,2.283-8.092,6.85,0,3.962,2.552,5.439,5.91,6.547,4.23,1.41,6.211,1.914,6.211,4.835,0,2.719-2.753,4.13-5.171,4.13a5.755,5.755,0,0,1-5.069-2.653L-15.277,18.9c1.612,2.384,4.566,3.29,7.32,3.29,4.3,0,8.36-2.216,8.36-6.95,0-4.667-3.425-5.875-7.118-7.051-3.794-1.208-5-2.182-5-4.364,0-2.821,2.585-4,5.07-4A4.939,4.939,0,0,1-2.317,2.015Z" fill="#090503"/>
      </g>
      <g id="Group_79514" data-name="Group 79514" transform="translate(48.689 -2.676)">
        <path id="Path_47486" data-name="Path 47486" d="M0,0A3.26,3.26,0,0,1-2.788,1.329,2.928,2.928,0,0,1-5.651-1.478H1.422v-.468c0-2.9-1.684-4.584-4.154-4.584a4.384,4.384,0,0,0-4.491,4.6,4.337,4.337,0,0,0,4.435,4.6A4.493,4.493,0,0,0,1.1.861ZM-5.651-2.713a2.71,2.71,0,0,1,2.863-2.47A2.434,2.434,0,0,1-.15-2.713ZM9.027,2.451h1.46V-8.8H9.027ZM25.293,0A3.263,3.263,0,0,1,22.5,1.329a2.928,2.928,0,0,1-2.863-2.807h7.073v-.468c0-2.9-1.684-4.584-4.154-4.584a4.384,4.384,0,0,0-4.491,4.6,4.337,4.337,0,0,0,4.435,4.6A4.493,4.493,0,0,0,26.4.861ZM19.642-2.713A2.71,2.71,0,0,1,22.5-5.183a2.434,2.434,0,0,1,2.638,2.47ZM34.21,2.451h1.46V-1.815c0-2,.823-3.368,2.714-3.368,1.2,0,1.683.748,1.683,2.676V2.451h1.46V-2.6a2.361,2.361,0,0,1,2.264-2.582c1.7,0,2.133,1.179,2.133,2.395V2.451h1.46V-2.863c0-2.264-.823-3.667-3.331-3.667a3.042,3.042,0,0,0-2.769,1.665,2.713,2.713,0,0,0-2.77-1.665A3.178,3.178,0,0,0,35.6-4.865h-.038c0-.487-.037-.973-.037-1.441H34.136c0,.58.074,1.273.074,2.077ZM62.118,0A3.263,3.263,0,0,1,59.33,1.329a2.928,2.928,0,0,1-2.863-2.807H63.54v-.468c0-2.9-1.684-4.584-4.155-4.584a4.383,4.383,0,0,0-4.49,4.6,4.337,4.337,0,0,0,4.435,4.6A4.491,4.491,0,0,0,63.221.861ZM56.467-2.713a2.71,2.71,0,0,1,2.863-2.47,2.435,2.435,0,0,1,2.638,2.47ZM71.036,2.451H72.5V-1.815c0-2,.824-3.368,2.713-3.368,1.367,0,2,.917,2,2.376V2.451h1.46V-2.956c0-2.115-1.029-3.574-3.331-3.574A3.18,3.18,0,0,0,72.42-4.865h-.037c0-.487-.037-.973-.037-1.441H70.961c0,.58.075,1.273.075,2.077ZM91.384-6.306H88.8V-8.8h-1.46v2.489H85.432v1.235h1.909V-.262c0,1.815.338,2.938,2.414,2.938a4.447,4.447,0,0,0,1.7-.318L91.4,1.029a2.83,2.83,0,0,1-1.29.3c-1.291,0-1.31-.9-1.31-2.021V-5.071h2.583Zm6.6,7.354a3.7,3.7,0,0,0,3.406,1.628c1.74,0,3.5-.767,3.5-2.751,0-1.759-1.31-2.32-2.863-2.619-1.16-.225-2.208-.543-2.208-1.273,0-.823.917-1.216,1.721-1.216A2.085,2.085,0,0,1,103.4-4.135l1.217-.8a3.183,3.183,0,0,0-2.975-1.59c-1.629,0-3.275.879-3.275,2.582,0,1.815,1.422,2.17,3.087,2.545.935.206,1.871.449,1.871,1.384,0,.955-1.01,1.348-1.927,1.348A2.714,2.714,0,0,1,99.148.15Z" fill="#9a9b9f"/>
      </g>
    </g>
  </g>
</svg>
