<svg xmlns="http://www.w3.org/2000/svg" width="223.969" height="54.634" viewBox="0 0 223.969 54.634">
  <g id="header-logo" transform="translate(-141.5 -52.682)">
    <path id="Path_48797" data-name="Path 48797" d="M257.946,349.992s-7.868,0-7.868,7.868v38.866s0,7.868,7.868,7.868h38.865s7.868,0,7.868-7.868V357.86s0-7.868-7.868-7.868Z" transform="translate(-108.578 -297.31)" fill="#9b001f"/>
    <path id="Path_48798" data-name="Path 48798" d="M308.44,388.555a5.115,5.115,0,1,0,5.115-5.115c-3.84,0-13.866-5.1-13.866-7.922a5.112,5.112,0,1,0-10.223,0c0,2.825-10.026,7.922-13.866,7.922a5.115,5.115,0,1,0,5.115,5.115c0-2.825,10.016-7.922,13.862-7.922s13.862,5.1,13.862,7.922Z" transform="translate(-125.773 -314.508)" fill="#fff"/>
    <path id="Path_48799" data-name="Path 48799" d="M308.44,467.709a5.115,5.115,0,1,0,5.115-5.115c-3.84,0-13.866-5.1-13.866-7.922a5.112,5.112,0,1,0-10.223,0c0,2.825-10.026,7.922-13.866,7.922a5.115,5.115,0,1,0,5.115,5.115c0-2.825,10.016-7.922,13.862-7.922s13.862,5.1,13.862,7.922Z" transform="translate(-125.773 -381.207)" fill="#fff"/>
    <path id="Path_48800" data-name="Path 48800" d="M308.44,546.865a5.115,5.115,0,1,0,5.115-5.115c-3.84,0-13.866-5.1-13.866-7.922a5.112,5.112,0,1,0-10.223,0c0,2.825-10.026,7.922-13.866,7.922a5.115,5.115,0,1,0,5.115,5.115c0-2.825,10.016-7.922,13.862-7.922s13.862,5.1,13.862,7.922Z" transform="translate(-125.773 -447.908)" fill="#fff"/>
    <path id="Path_48801" data-name="Path 48801" d="M1651.385,676.56h.383v-.853h.279l.52.853h.4l-.544-.883a.528.528,0,0,0,.5-.574c0-.4-.235-.628-.735-.628h-.8v2.084Zm.383-1.76h.279c.235,0,.5.01.5.289s-.26.294-.5.294h-.279V674.8Zm-1.505.731a1.824,1.824,0,1,0,1.824-1.824,1.827,1.827,0,0,0-1.824,1.824Zm.324,0a1.5,1.5,0,1,1,1.5,1.5,1.5,1.5,0,0,1-1.5-1.5Z" transform="translate(-1288.441 -570.087)" fill="#fff"/>
    <path id="Path_48802" data-name="Path 48802" d="M799.481,386.515h4.172v-15.8h7.054c4.967,0,11.524-2.037,11.524-9.736,0-7.352-5.862-9.637-12.319-9.637H799.481v35.169Zm4.172-31.294h7.054c4.173,0,7.054,1.888,7.054,5.812s-2.881,5.812-7.054,5.812h-7.054V355.22Zm23.172,31.294H831V351.346h-4.172v35.169Zm11.772,0h4.172V357.307h.1l20.366,29.208H868.5V351.346h-4.173v29.208h-.1l-20.366-29.208H838.6v35.169Zm33.614,0h4.719l3.626-8.643h17.584l3.576,8.643h4.868l-14.952-35.169H887.71l-15.5,35.169ZM896.552,374H882.2l7.3-17.286h.1L896.552,374ZM910.3,386.515h20.267V382.64H914.468V351.346H910.3v35.169Z" transform="translate(-571.531 -298.45)" fill="#fff"/>
    <path id="Path_48803" data-name="Path 48803" d="M644.97,353.941c-2.473-2.9-5.659-3.947-9.416-3.947-5.9,0-11.461,3.234-11.461,9.7,0,5.612,3.614,7.7,8.37,9.273,5.992,2,8.8,2.711,8.8,6.848,0,3.852-3.9,5.849-7.324,5.849a8.154,8.154,0,0,1-7.181-3.757l-3.424,2.806c2.283,3.376,6.468,4.66,10.367,4.66,6.087,0,11.841-3.139,11.841-9.844,0-6.61-4.851-8.322-10.082-9.987-5.374-1.712-7.086-3.091-7.086-6.182,0-3.995,3.662-5.659,7.181-5.659a7,7,0,0,1,6.135,3.091l3.281-2.853Z" transform="translate(-423.1 -297.312)" fill="#fff"/>
    <path id="Path_48804" data-name="Path 48804" d="M633.562,606.411a4.621,4.621,0,0,1-3.949,1.882,4.147,4.147,0,0,1-4.055-3.976h10.018v-.663c0-4.108-2.385-6.494-5.884-6.494a6.21,6.21,0,0,0-6.361,6.52c0,3.6,2.385,6.52,6.281,6.52a6.362,6.362,0,0,0,5.513-2.571l-1.564-1.219Zm-8-3.843a3.838,3.838,0,0,1,4.055-3.5,3.448,3.448,0,0,1,3.737,3.5Zm20.789,7.315h2.067V593.954h-2.067v15.929Zm23.039-3.472a4.621,4.621,0,0,1-3.949,1.882,4.147,4.147,0,0,1-4.055-3.976H671.4v-.663c0-4.108-2.385-6.494-5.884-6.494a6.21,6.21,0,0,0-6.361,6.52c0,3.6,2.385,6.52,6.281,6.52a6.362,6.362,0,0,0,5.513-2.571l-1.564-1.219Zm-8-3.843a3.838,3.838,0,0,1,4.055-3.5,3.448,3.448,0,0,1,3.737,3.5Zm20.635,7.315h2.067V603.84c0-2.836,1.166-4.771,3.843-4.771,1.7,0,2.385,1.06,2.385,3.79v7.023h2.067v-7.156a3.343,3.343,0,0,1,3.207-3.658c2.412,0,3.021,1.67,3.021,3.392v7.421h2.067v-7.527c0-3.207-1.166-5.195-4.718-5.195a4.308,4.308,0,0,0-3.922,2.359,3.844,3.844,0,0,0-3.922-2.359,4.5,4.5,0,0,0-4.135,2.359h-.053c0-.689-.053-1.378-.053-2.041h-1.961c0,.821.106,1.8.106,2.942v9.462Zm39.527-3.472a4.62,4.62,0,0,1-3.949,1.882,4.147,4.147,0,0,1-4.055-3.976h10.018v-.663c0-4.108-2.385-6.494-5.884-6.494a6.21,6.21,0,0,0-6.361,6.52c0,3.6,2.385,6.52,6.281,6.52a6.363,6.363,0,0,0,5.513-2.571l-1.564-1.219Zm-8-3.843a3.838,3.838,0,0,1,4.055-3.5,3.448,3.448,0,0,1,3.737,3.5Zm20.635,7.315h2.067V603.84c0-2.836,1.166-4.771,3.843-4.771,1.935,0,2.836,1.3,2.836,3.366v7.447h2.067v-7.66c0-2.995-1.458-5.062-4.718-5.062a4.5,4.5,0,0,0-4.134,2.359h-.053c0-.689-.053-1.378-.053-2.041H734.07c0,.821.106,1.8.106,2.942v9.462Zm28.82-12.4h-3.658v-3.525h-2.067v3.525h-2.7v1.749h2.7v6.811c0,2.571.477,4.161,3.419,4.161a6.288,6.288,0,0,0,2.412-.45l-.08-1.882a4.025,4.025,0,0,1-1.829.424c-1.829,0-1.855-1.272-1.855-2.862v-6.2H763v-1.749Zm9.355,10.416a5.239,5.239,0,0,0,4.824,2.306c2.465,0,4.956-1.087,4.956-3.9,0-2.491-1.855-3.286-4.055-3.711-1.643-.318-3.128-.769-3.128-1.8,0-1.166,1.3-1.723,2.438-1.723a2.954,2.954,0,0,1,2.624,1.484l1.723-1.14a4.508,4.508,0,0,0-4.214-2.253c-2.306,0-4.638,1.246-4.638,3.658,0,2.571,2.014,3.075,4.373,3.6,1.325.292,2.65.636,2.65,1.961,0,1.352-1.431,1.908-2.73,1.908a3.843,3.843,0,0,1-3.18-1.67l-1.643,1.272Z" transform="translate(-423.1 -502.884)" fill="#fff"/>
  </g>
</svg>
